<svg version="1.1" xmlns="http://www.w3.org/2000/svg" xmlns:xlink="http://www.w3.org/1999/xlink" width="699" height="343" viewBox="0 0 699 343"><defs/><g transform="matrix(1,0,0,1,0,0)"><g><g><g><path fill="none" stroke="#d3d3d3" paint-order="fill stroke markers" d=" M 0 0 L 1200 0" stroke-miterlimit="10" stroke-opacity="0.8" stroke-dasharray="5"/></g><g><path fill="none" stroke="#d3d3d3" paint-order="fill stroke markers" d=" M 0 0 L 0 800" stroke-miterlimit="10" stroke-opacity="0.8" stroke-dasharray="5"/></g></g><g id="_B5F81D7F-5F69-4CFF-9CE3-5B3F74967D11" transform="matrix(1,0,0,1,267,242)"><g><path fill="none" stroke="none"/></g><g transform="matrix(0.9345794392523364,0,0,0.8771929824561403,0,0)"><g transform="matrix(1,0,0,1,0,0)"><path fill="none" stroke="#000000" id="_B5F81D7F-5F69-4CFF-9CE3-5B3F74967D11?shapeType=BORDER&amp;renderType=STROKE" paint-order="fill stroke markers" d=" M 0 0 M 1.5 30 C 1.5 14.3 14.3 1.5 30 1.5 L 80 1.5 C 95.7 1.5 108.5 14.3 108.5 30 C 108.5 45.7 95.7 58.5 80 58.5 L 30 58.5 C 14.3 58.5 1.5 45.7 1.5 30 Z" stroke-miterlimit="10" stroke-width="1.5" stroke-dasharray=""/></g></g><g transform="matrix(1,0,0,1,15.989845275878906,19.5)"><text fill="#000000" stroke="none" font-family="Open Sans" font-size="10pt" font-style="normal" font-weight="normal" text-decoration="normal" x="34.010154724121094" y="8.8" text-anchor="middle" dominant-baseline="alphabetic">Entity Type</text></g></g><g id="_5813BC49-4C70-4AD7-9BDB-52A14394E87F" transform="matrix(1,0,0,1,548,242)"><g><path fill="none" stroke="none"/></g><g transform="matrix(0.9345794392523364,0,0,0.8771929824561403,0,0)"><g transform="matrix(1,0,0,1,0,0)"><path fill="none" stroke="#000000" id="_5813BC49-4C70-4AD7-9BDB-52A14394E87F?shapeType=BORDER&amp;renderType=STROKE" paint-order="fill stroke markers" d=" M 0 0 M 1.5 30 C 1.5 14.3 14.3 1.5 30 1.5 L 80 1.5 C 95.7 1.5 108.5 14.3 108.5 30 C 108.5 45.7 95.7 58.5 80 58.5 L 30 58.5 C 14.3 58.5 1.5 45.7 1.5 30 Z" stroke-miterlimit="10" stroke-width="1.5" stroke-dasharray=""/></g></g><g transform="matrix(1,0,0,1,9.211906433105469,19.5)"><text fill="#000000" stroke="none" font-family="Open Sans" font-size="10pt" font-style="normal" font-weight="normal" text-decoration="normal" x="40.78809356689453" y="8.8" text-anchor="middle" dominant-baseline="alphabetic">Product Type</text></g></g><g id="_173C741B-EE2F-47F4-90A3-74A774B3A3BC" transform="matrix(1,0,0,1,408,141)"><g><path fill="none" stroke="none"/></g><g transform="matrix(1,0,0,1,0,0)"><path fill="none" stroke="rgb(0,136,206)" id="_173C741B-EE2F-47F4-90A3-74A774B3A3BC?shapeType=BORDER&amp;renderType=STROKE" paint-order="fill stroke markers" d=" M 0 0 L 100 0 L 100 50 L 0 50 L 0 0 Z Z" stroke-miterlimit="10" stroke-width="1.5" stroke-dasharray=""/></g><g transform="matrix(1,0,0,1,15.742523193359375,14)"><text fill="#000000" stroke="none" font-family="Open Sans" font-size="10pt" font-style="normal" font-weight="normal" text-decoration="normal" x="34.257476806640625" y="8.8" text-anchor="middle" dominant-baseline="alphabetic">Document </text><text fill="#000000" stroke="none" font-family="Open Sans" font-size="10pt" font-style="normal" font-weight="normal" text-decoration="normal" x="34.257476806640625" y="19.8" text-anchor="middle" dominant-baseline="alphabetic">  Checklist  </text></g></g><g id="_382E5F8B-08C2-49AB-BD42-EC949D96C0B7#_04AFDFDC-9BFA-4589-87C0-62259184AA79"><g><path fill="none" stroke="#000000" paint-order="fill stroke markers" d=" M 363.38157894736844 242 L 458 191" stroke-miterlimit="10" stroke-dasharray=""/></g><g transform="matrix(-0.8802705561899391,0.4744720728399674,-0.4744720728399674,-0.8802705561899391,363.38157894736844,242)"/><g transform="matrix(0.47447207283996734,0.8802705561899391,-0.8802705561899391,0.47447207283996734,455.62763963580016,186.5986472190503)"><path fill="#000000" stroke="#000000" paint-order="fill stroke markers" d=" M 10 15 L 0 15 L 5 0 Z" stroke-miterlimit="10" stroke-dasharray=""/></g><g transform="matrix(1,0,0,1,368.1262996757681,207.6972944381006)"/></g><g id="_382E5F8B-08C2-49AB-BD42-EC949D96C0B7#_7261C51F-7F97-4792-9C95-AE3197DF282C"><g><path fill="none" stroke="#000000" paint-order="fill stroke markers" d=" M 551.9473684210526 242 L 458 191" stroke-miterlimit="10" stroke-dasharray=""/></g><g transform="matrix(0.8788534316656944,0.4770918629042343,-0.4770918629042343,0.8788534316656944,551.9473684210526,242)"/><g transform="matrix(0.4770918629042342,-0.8788534316656944,0.8788534316656944,0.4770918629042342,455.6145406854788,195.39426715832846)"><path fill="#000000" stroke="#000000" paint-order="fill stroke markers" d=" M 10 15 L 0 15 L 5 0 Z" stroke-miterlimit="10" stroke-dasharray=""/></g><g transform="matrix(1,0,0,1,462.77091862904234,207.71146568334305)"/></g><g transform="matrix(1,0,0,1,267,242)"/><g transform="matrix(1,0,0,1,548,242)"/><g transform="matrix(1,0,0,1,408,141)"/></g></g></svg>